<svg xmlns="http://www.w3.org/2000/svg" width="35.14" height="34.252" viewBox="0 0 35.14 34.252"><defs><style>.a{fill:none;stroke:#fff;stroke-width:3px;}</style></defs><path class="a" d="M26.862,3.937h-.077a8.791,8.791,0,0,0-7.34,4.018,8.791,8.791,0,0,0-7.34-4.018h-.077a8.735,8.735,0,0,0-8.653,8.73A18.806,18.806,0,0,0,7.068,22.92c4.651,6.358,12.377,11.921,12.377,11.921s7.726-5.563,12.377-11.921a18.806,18.806,0,0,0,3.693-10.252A8.735,8.735,0,0,0,26.862,3.937Z" transform="translate(-1.875 -2.438)"/></svg>