<svg xmlns="http://www.w3.org/2000/svg" width="25.996" height="22.898" viewBox="0 0 25.996 22.898"><defs><style>.a{fill:#adadad;}.b{fill:none;stroke:#fff;stroke-width:2px;}</style></defs><g transform="translate(7665.662 6913)"><path class="a" d="M12.392,78.732V69.594l6.8,4.567Z" transform="translate(-7667.351 -6975.728)"/><path class="b" d="M23.836,68.614c0-2.449-1.552-4.419-3.469-4.419-2.6-.141-5.245-.2-7.952-.2h-.844c-2.7,0-5.353.054-7.95.2C1.71,64.2.158,66.177.158,68.626.041,70.563-.009,72.5-.006,74.437s.048,3.877.159,5.818c0,2.449,1.552,4.435,3.464,4.435,2.728.147,5.526.212,8.372.207q4.275.016,8.372-.207c1.917,0,3.469-1.986,3.469-4.435.112-1.943.164-3.88.159-5.823Q24,71.526,23.836,68.614Z" transform="translate(-7664.656 -6976)"/></g></svg>